<?xml version="1.0" encoding="utf-8" standalone="no"?>
<!DOCTYPE svg PUBLIC "-//W3C//DTD SVG 1.1//EN"
  "http://www.w3.org/Graphics/SVG/1.1/DTD/svg11.dtd">
<svg xmlns:xlink="http://www.w3.org/1999/xlink" width="864pt" height="432pt" viewBox="0 0 864 432" xmlns="http://www.w3.org/2000/svg" version="1.1">
 <metadata>
  <rdf:RDF xmlns:dc="http://purl.org/dc/elements/1.1/" xmlns:cc="http://creativecommons.org/ns#" xmlns:rdf="http://www.w3.org/1999/02/22-rdf-syntax-ns#">
   <cc:Work>
    <dc:type rdf:resource="http://purl.org/dc/dcmitype/StillImage"/>
    <dc:date>2025-12-29T21:22:26.260900</dc:date>
    <dc:format>image/svg+xml</dc:format>
    <dc:creator>
     <cc:Agent>
      <dc:title>Matplotlib v3.7.3, https://matplotlib.org/</dc:title>
     </cc:Agent>
    </dc:creator>
   </cc:Work>
  </rdf:RDF>
 </metadata>
 <defs>
  <style type="text/css">*{stroke-linejoin: round; stroke-linecap: butt}</style>
 </defs>
 <g id="figure_1">
  <g id="patch_1">
   <path d="M 0 432 
L 864 432 
L 864 0 
L 0 0 
z
" style="fill: #ffffff"/>
  </g>
  <g id="axes_1">
   <g id="patch_2">
    <path d="M 38.27 387.385 
L 853.2 387.385 
L 853.2 26.16 
L 38.27 26.16 
z
" style="fill: #ffffff"/>
   </g>
   <g id="patch_3">
    <path d="M 74366.677083 387.385 
L 95029.227233 387.385 
L 95029.227233 158.035794 
L 74366.677083 158.035794 
z
" clip-path="url(#p830a18197f)" style="fill: #1f77b4"/>
   </g>
   <g id="patch_4">
    <path d="M 95029.227233 387.385 
L 115691.777383 387.385 
L 115691.777383 387.385 
L 95029.227233 387.385 
z
" clip-path="url(#p830a18197f)" style="fill: #1f77b4"/>
   </g>
   <g id="patch_5">
    <path d="M 115691.777383 387.385 
L 136354.327533 387.385 
L 136354.327533 272.710397 
L 115691.777383 272.710397 
z
" clip-path="url(#p830a18197f)" style="fill: #1f77b4"/>
   </g>
   <g id="patch_6">
    <path d="M 136354.327533 387.385 
L 157016.877683 387.385 
L 157016.877683 272.710397 
L 136354.327533 272.710397 
z
" clip-path="url(#p830a18197f)" style="fill: #1f77b4"/>
   </g>
   <g id="patch_7">
    <path d="M 157016.877683 387.385 
L 177679.427833 387.385 
L 177679.427833 387.385 
L 157016.877683 387.385 
z
" clip-path="url(#p830a18197f)" style="fill: #1f77b4"/>
   </g>
   <g id="patch_8">
    <path d="M 177679.427833 387.385 
L 198341.977983 387.385 
L 198341.977983 387.385 
L 177679.427833 387.385 
z
" clip-path="url(#p830a18197f)" style="fill: #1f77b4"/>
   </g>
   <g id="patch_9">
    <path d="M 198341.977983 387.385 
L 219004.528133 387.385 
L 219004.528133 272.710397 
L 198341.977983 272.710397 
z
" clip-path="url(#p830a18197f)" style="fill: #1f77b4"/>
   </g>
   <g id="patch_10">
    <path d="M 219004.528133 387.385 
L 239667.078283 387.385 
L 239667.078283 387.385 
L 219004.528133 387.385 
z
" clip-path="url(#p830a18197f)" style="fill: #1f77b4"/>
   </g>
   <g id="patch_11">
    <path d="M 239667.078283 387.385 
L 260329.628433 387.385 
L 260329.628433 158.035794 
L 239667.078283 158.035794 
z
" clip-path="url(#p830a18197f)" style="fill: #1f77b4"/>
   </g>
   <g id="patch_12">
    <path d="M 260329.628433 387.385 
L 280992.178583 387.385 
L 280992.178583 272.710397 
L 260329.628433 272.710397 
z
" clip-path="url(#p830a18197f)" style="fill: #1f77b4"/>
   </g>
   <g id="patch_13">
    <path d="M 280992.178583 387.385 
L 301654.728733 387.385 
L 301654.728733 387.385 
L 280992.178583 387.385 
z
" clip-path="url(#p830a18197f)" style="fill: #1f77b4"/>
   </g>
   <g id="patch_14">
    <path d="M 301654.728733 387.385 
L 322317.278883 387.385 
L 322317.278883 387.385 
L 301654.728733 387.385 
z
" clip-path="url(#p830a18197f)" style="fill: #1f77b4"/>
   </g>
   <g id="patch_15">
    <path d="M 322317.278883 387.385 
L 342979.829033 387.385 
L 342979.829033 387.385 
L 322317.278883 387.385 
z
" clip-path="url(#p830a18197f)" style="fill: #1f77b4"/>
   </g>
   <g id="patch_16">
    <path d="M 342979.829033 387.385 
L 363642.379183 387.385 
L 363642.379183 387.385 
L 342979.829033 387.385 
z
" clip-path="url(#p830a18197f)" style="fill: #1f77b4"/>
   </g>
   <g id="patch_17">
    <path d="M 363642.379183 387.385 
L 384304.929333 387.385 
L 384304.929333 387.385 
L 363642.379183 387.385 
z
" clip-path="url(#p830a18197f)" style="fill: #1f77b4"/>
   </g>
   <g id="patch_18">
    <path d="M 384304.929333 387.385 
L 404967.479483 387.385 
L 404967.479483 387.385 
L 384304.929333 387.385 
z
" clip-path="url(#p830a18197f)" style="fill: #1f77b4"/>
   </g>
   <g id="patch_19">
    <path d="M 404967.479483 387.385 
L 425630.029633 387.385 
L 425630.029633 387.385 
L 404967.479483 387.385 
z
" clip-path="url(#p830a18197f)" style="fill: #1f77b4"/>
   </g>
   <g id="patch_20">
    <path d="M 425630.029633 387.385 
L 446292.579783 387.385 
L 446292.579783 387.385 
L 425630.029633 387.385 
z
" clip-path="url(#p830a18197f)" style="fill: #1f77b4"/>
   </g>
   <g id="patch_21">
    <path d="M 446292.579783 387.385 
L 466955.129933 387.385 
L 466955.129933 272.710397 
L 446292.579783 272.710397 
z
" clip-path="url(#p830a18197f)" style="fill: #1f77b4"/>
   </g>
   <g id="patch_22">
    <path d="M 466955.129933 387.385 
L 487617.680083 387.385 
L 487617.680083 387.385 
L 466955.129933 387.385 
z
" clip-path="url(#p830a18197f)" style="fill: #1f77b4"/>
   </g>
   <g id="patch_23">
    <path d="M 487617.680083 387.385 
L 508280.230233 387.385 
L 508280.230233 387.385 
L 487617.680083 387.385 
z
" clip-path="url(#p830a18197f)" style="fill: #1f77b4"/>
   </g>
   <g id="patch_24">
    <path d="M 508280.230233 387.385 
L 528942.780383 387.385 
L 528942.780383 387.385 
L 508280.230233 387.385 
z
" clip-path="url(#p830a18197f)" style="fill: #1f77b4"/>
   </g>
   <g id="patch_25">
    <path d="M 528942.780383 387.385 
L 549605.330533 387.385 
L 549605.330533 387.385 
L 528942.780383 387.385 
z
" clip-path="url(#p830a18197f)" style="fill: #1f77b4"/>
   </g>
   <g id="patch_26">
    <path d="M 549605.330533 387.385 
L 570267.880683 387.385 
L 570267.880683 387.385 
L 549605.330533 387.385 
z
" clip-path="url(#p830a18197f)" style="fill: #1f77b4"/>
   </g>
   <g id="patch_27">
    <path d="M 570267.880683 387.385 
L 590930.430833 387.385 
L 590930.430833 387.385 
L 570267.880683 387.385 
z
" clip-path="url(#p830a18197f)" style="fill: #1f77b4"/>
   </g>
   <g id="patch_28">
    <path d="M 590930.430833 387.385 
L 611592.980983 387.385 
L 611592.980983 387.385 
L 590930.430833 387.385 
z
" clip-path="url(#p830a18197f)" style="fill: #1f77b4"/>
   </g>
   <g id="patch_29">
    <path d="M 611592.980983 387.385 
L 632255.531133 387.385 
L 632255.531133 387.385 
L 611592.980983 387.385 
z
" clip-path="url(#p830a18197f)" style="fill: #1f77b4"/>
   </g>
   <g id="patch_30">
    <path d="M 632255.531133 387.385 
L 652918.081283 387.385 
L 652918.081283 387.385 
L 632255.531133 387.385 
z
" clip-path="url(#p830a18197f)" style="fill: #1f77b4"/>
   </g>
   <g id="patch_31">
    <path d="M 652918.081283 387.385 
L 673580.631433 387.385 
L 673580.631433 387.385 
L 652918.081283 387.385 
z
" clip-path="url(#p830a18197f)" style="fill: #1f77b4"/>
   </g>
   <g id="patch_32">
    <path d="M 673580.631433 387.385 
L 694243.181583 387.385 
L 694243.181583 387.385 
L 673580.631433 387.385 
z
" clip-path="url(#p830a18197f)" style="fill: #1f77b4"/>
   </g>
   <g id="patch_33">
    <path d="M 694243.181583 387.385 
L 714905.731733 387.385 
L 714905.731733 387.385 
L 694243.181583 387.385 
z
" clip-path="url(#p830a18197f)" style="fill: #1f77b4"/>
   </g>
   <g id="patch_34">
    <path d="M 714905.731733 387.385 
L 735568.281883 387.385 
L 735568.281883 387.385 
L 714905.731733 387.385 
z
" clip-path="url(#p830a18197f)" style="fill: #1f77b4"/>
   </g>
   <g id="patch_35">
    <path d="M 735568.281883 387.385 
L 756230.832033 387.385 
L 756230.832033 387.385 
L 735568.281883 387.385 
z
" clip-path="url(#p830a18197f)" style="fill: #1f77b4"/>
   </g>
   <g id="patch_36">
    <path d="M 756230.832033 387.385 
L 776893.382183 387.385 
L 776893.382183 387.385 
L 756230.832033 387.385 
z
" clip-path="url(#p830a18197f)" style="fill: #1f77b4"/>
   </g>
   <g id="patch_37">
    <path d="M 776893.382183 387.385 
L 797555.932333 387.385 
L 797555.932333 387.385 
L 776893.382183 387.385 
z
" clip-path="url(#p830a18197f)" style="fill: #1f77b4"/>
   </g>
   <g id="patch_38">
    <path d="M 797555.932333 387.385 
L 818218.482483 387.385 
L 818218.482483 387.385 
L 797555.932333 387.385 
z
" clip-path="url(#p830a18197f)" style="fill: #1f77b4"/>
   </g>
   <g id="patch_39">
    <path d="M 818218.482483 387.385 
L 838881.032633 387.385 
L 838881.032633 387.385 
L 818218.482483 387.385 
z
" clip-path="url(#p830a18197f)" style="fill: #1f77b4"/>
   </g>
   <g id="patch_40">
    <path d="M 838881.032633 387.385 
L 859543.582783 387.385 
L 859543.582783 387.385 
L 838881.032633 387.385 
z
" clip-path="url(#p830a18197f)" style="fill: #1f77b4"/>
   </g>
   <g id="patch_41">
    <path d="M 859543.582783 387.385 
L 880206.132933 387.385 
L 880206.132933 387.385 
L 859543.582783 387.385 
z
" clip-path="url(#p830a18197f)" style="fill: #1f77b4"/>
   </g>
   <g id="patch_42">
    <path d="M 880206.132933 387.385 
L 900868.683083 387.385 
L 900868.683083 387.385 
L 880206.132933 387.385 
z
" clip-path="url(#p830a18197f)" style="fill: #1f77b4"/>
   </g>
   <g id="patch_43">
    <path d="M 900868.683083 387.385 
L 921531.233233 387.385 
L 921531.233233 387.385 
L 900868.683083 387.385 
z
" clip-path="url(#p830a18197f)" style="fill: #1f77b4"/>
   </g>
   <g id="patch_44">
    <path d="M 921531.233233 387.385 
L 942193.783383 387.385 
L 942193.783383 387.385 
L 921531.233233 387.385 
z
" clip-path="url(#p830a18197f)" style="fill: #1f77b4"/>
   </g>
   <g id="patch_45">
    <path d="M 942193.783383 387.385 
L 962856.333533 387.385 
L 962856.333533 387.385 
L 942193.783383 387.385 
z
" clip-path="url(#p830a18197f)" style="fill: #1f77b4"/>
   </g>
   <g id="patch_46">
    <path d="M 962856.333533 387.385 
L 983518.883683 387.385 
L 983518.883683 387.385 
L 962856.333533 387.385 
z
" clip-path="url(#p830a18197f)" style="fill: #1f77b4"/>
   </g>
   <g id="patch_47">
    <path d="M 983518.883683 387.385 
L 1004181.433833 387.385 
L 1004181.433833 387.385 
L 983518.883683 387.385 
z
" clip-path="url(#p830a18197f)" style="fill: #1f77b4"/>
   </g>
   <g id="patch_48">
    <path d="M 1004181.433833 387.385 
L 1024843.983983 387.385 
L 1024843.983983 387.385 
L 1004181.433833 387.385 
z
" clip-path="url(#p830a18197f)" style="fill: #1f77b4"/>
   </g>
   <g id="patch_49">
    <path d="M 1024843.983983 387.385 
L 1045506.534133 387.385 
L 1045506.534133 387.385 
L 1024843.983983 387.385 
z
" clip-path="url(#p830a18197f)" style="fill: #1f77b4"/>
   </g>
   <g id="patch_50">
    <path d="M 1045506.534133 387.385 
L 1066169.084283 387.385 
L 1066169.084283 387.385 
L 1045506.534133 387.385 
z
" clip-path="url(#p830a18197f)" style="fill: #1f77b4"/>
   </g>
   <g id="patch_51">
    <path d="M 1066169.084283 387.385 
L 1086831.634433 387.385 
L 1086831.634433 387.385 
L 1066169.084283 387.385 
z
" clip-path="url(#p830a18197f)" style="fill: #1f77b4"/>
   </g>
   <g id="patch_52">
    <path d="M 1086831.634433 387.385 
L 1107494.184583 387.385 
L 1107494.184583 387.385 
L 1086831.634433 387.385 
z
" clip-path="url(#p830a18197f)" style="fill: #1f77b4"/>
   </g>
   <g id="patch_53">
    <path d="M 1107494.184583 387.385 
L 1128156.734733 387.385 
L 1128156.734733 387.385 
L 1107494.184583 387.385 
z
" clip-path="url(#p830a18197f)" style="fill: #1f77b4"/>
   </g>
   <g id="patch_54">
    <path d="M 1128156.734733 387.385 
L 1148819.284883 387.385 
L 1148819.284883 387.385 
L 1128156.734733 387.385 
z
" clip-path="url(#p830a18197f)" style="fill: #1f77b4"/>
   </g>
   <g id="patch_55">
    <path d="M 1148819.284883 387.385 
L 1169481.835033 387.385 
L 1169481.835033 387.385 
L 1148819.284883 387.385 
z
" clip-path="url(#p830a18197f)" style="fill: #1f77b4"/>
   </g>
   <g id="patch_56">
    <path d="M 1169481.835033 387.385 
L 1190144.385183 387.385 
L 1190144.385183 387.385 
L 1169481.835033 387.385 
z
" clip-path="url(#p830a18197f)" style="fill: #1f77b4"/>
   </g>
   <g id="patch_57">
    <path d="M 1190144.385183 387.385 
L 1210806.935333 387.385 
L 1210806.935333 387.385 
L 1190144.385183 387.385 
z
" clip-path="url(#p830a18197f)" style="fill: #1f77b4"/>
   </g>
   <g id="patch_58">
    <path d="M 1210806.935333 387.385 
L 1231469.485483 387.385 
L 1231469.485483 387.385 
L 1210806.935333 387.385 
z
" clip-path="url(#p830a18197f)" style="fill: #1f77b4"/>
   </g>
   <g id="patch_59">
    <path d="M 1231469.485483 387.385 
L 1252132.035633 387.385 
L 1252132.035633 387.385 
L 1231469.485483 387.385 
z
" clip-path="url(#p830a18197f)" style="fill: #1f77b4"/>
   </g>
   <g id="patch_60">
    <path d="M 1252132.035633 387.385 
L 1272794.585783 387.385 
L 1272794.585783 387.385 
L 1252132.035633 387.385 
z
" clip-path="url(#p830a18197f)" style="fill: #1f77b4"/>
   </g>
   <g id="patch_61">
    <path d="M 1272794.585783 387.385 
L 1293457.135933 387.385 
L 1293457.135933 387.385 
L 1272794.585783 387.385 
z
" clip-path="url(#p830a18197f)" style="fill: #1f77b4"/>
   </g>
   <g id="patch_62">
    <path d="M 1293457.135933 387.385 
L 1314119.686083 387.385 
L 1314119.686083 387.385 
L 1293457.135933 387.385 
z
" clip-path="url(#p830a18197f)" style="fill: #1f77b4"/>
   </g>
   <g id="patch_63">
    <path d="M 1314119.686083 387.385 
L 1334782.236233 387.385 
L 1334782.236233 387.385 
L 1314119.686083 387.385 
z
" clip-path="url(#p830a18197f)" style="fill: #1f77b4"/>
   </g>
   <g id="patch_64">
    <path d="M 1334782.236233 387.385 
L 1355444.786383 387.385 
L 1355444.786383 387.385 
L 1334782.236233 387.385 
z
" clip-path="url(#p830a18197f)" style="fill: #1f77b4"/>
   </g>
   <g id="patch_65">
    <path d="M 1355444.786383 387.385 
L 1376107.336533 387.385 
L 1376107.336533 387.385 
L 1355444.786383 387.385 
z
" clip-path="url(#p830a18197f)" style="fill: #1f77b4"/>
   </g>
   <g id="patch_66">
    <path d="M 1376107.336533 387.385 
L 1396769.886683 387.385 
L 1396769.886683 387.385 
L 1376107.336533 387.385 
z
" clip-path="url(#p830a18197f)" style="fill: #1f77b4"/>
   </g>
   <g id="patch_67">
    <path d="M 1396769.886683 387.385 
L 1417432.436833 387.385 
L 1417432.436833 387.385 
L 1396769.886683 387.385 
z
" clip-path="url(#p830a18197f)" style="fill: #1f77b4"/>
   </g>
   <g id="patch_68">
    <path d="M 1417432.436833 387.385 
L 1438094.986983 387.385 
L 1438094.986983 387.385 
L 1417432.436833 387.385 
z
" clip-path="url(#p830a18197f)" style="fill: #1f77b4"/>
   </g>
   <g id="patch_69">
    <path d="M 1438094.986983 387.385 
L 1458757.537133 387.385 
L 1458757.537133 387.385 
L 1438094.986983 387.385 
z
" clip-path="url(#p830a18197f)" style="fill: #1f77b4"/>
   </g>
   <g id="patch_70">
    <path d="M 1458757.537133 387.385 
L 1479420.087283 387.385 
L 1479420.087283 387.385 
L 1458757.537133 387.385 
z
" clip-path="url(#p830a18197f)" style="fill: #1f77b4"/>
   </g>
   <g id="patch_71">
    <path d="M 1479420.087283 387.385 
L 1500082.637433 387.385 
L 1500082.637433 387.385 
L 1479420.087283 387.385 
z
" clip-path="url(#p830a18197f)" style="fill: #1f77b4"/>
   </g>
   <g id="patch_72">
    <path d="M 1500082.637433 387.385 
L 1520745.187583 387.385 
L 1520745.187583 272.710397 
L 1500082.637433 272.710397 
z
" clip-path="url(#p830a18197f)" style="fill: #1f77b4"/>
   </g>
   <g id="patch_73">
    <path d="M 1520745.187583 387.385 
L 1541407.737733 387.385 
L 1541407.737733 387.385 
L 1520745.187583 387.385 
z
" clip-path="url(#p830a18197f)" style="fill: #1f77b4"/>
   </g>
   <g id="patch_74">
    <path d="M 1541407.737733 387.385 
L 1562070.287883 387.385 
L 1562070.287883 387.385 
L 1541407.737733 387.385 
z
" clip-path="url(#p830a18197f)" style="fill: #1f77b4"/>
   </g>
   <g id="patch_75">
    <path d="M 1562070.287883 387.385 
L 1582732.838033 387.385 
L 1582732.838033 387.385 
L 1562070.287883 387.385 
z
" clip-path="url(#p830a18197f)" style="fill: #1f77b4"/>
   </g>
   <g id="patch_76">
    <path d="M 1582732.838033 387.385 
L 1603395.388183 387.385 
L 1603395.388183 387.385 
L 1582732.838033 387.385 
z
" clip-path="url(#p830a18197f)" style="fill: #1f77b4"/>
   </g>
   <g id="patch_77">
    <path d="M 1603395.388183 387.385 
L 1624057.938333 387.385 
L 1624057.938333 387.385 
L 1603395.388183 387.385 
z
" clip-path="url(#p830a18197f)" style="fill: #1f77b4"/>
   </g>
   <g id="patch_78">
    <path d="M 1624057.938333 387.385 
L 1644720.488483 387.385 
L 1644720.488483 387.385 
L 1624057.938333 387.385 
z
" clip-path="url(#p830a18197f)" style="fill: #1f77b4"/>
   </g>
   <g id="patch_79">
    <path d="M 1644720.488483 387.385 
L 1665383.038633 387.385 
L 1665383.038633 387.385 
L 1644720.488483 387.385 
z
" clip-path="url(#p830a18197f)" style="fill: #1f77b4"/>
   </g>
   <g id="patch_80">
    <path d="M 1665383.038633 387.385 
L 1686045.588783 387.385 
L 1686045.588783 387.385 
L 1665383.038633 387.385 
z
" clip-path="url(#p830a18197f)" style="fill: #1f77b4"/>
   </g>
   <g id="patch_81">
    <path d="M 1686045.588783 387.385 
L 1706708.138933 387.385 
L 1706708.138933 387.385 
L 1686045.588783 387.385 
z
" clip-path="url(#p830a18197f)" style="fill: #1f77b4"/>
   </g>
   <g id="patch_82">
    <path d="M 1706708.138933 387.385 
L 1727370.689083 387.385 
L 1727370.689083 387.385 
L 1706708.138933 387.385 
z
" clip-path="url(#p830a18197f)" style="fill: #1f77b4"/>
   </g>
   <g id="patch_83">
    <path d="M 1727370.689083 387.385 
L 1748033.239233 387.385 
L 1748033.239233 387.385 
L 1727370.689083 387.385 
z
" clip-path="url(#p830a18197f)" style="fill: #1f77b4"/>
   </g>
   <g id="patch_84">
    <path d="M 1748033.239233 387.385 
L 1768695.789383 387.385 
L 1768695.789383 387.385 
L 1748033.239233 387.385 
z
" clip-path="url(#p830a18197f)" style="fill: #1f77b4"/>
   </g>
   <g id="patch_85">
    <path d="M 1768695.789383 387.385 
L 1789358.339533 387.385 
L 1789358.339533 387.385 
L 1768695.789383 387.385 
z
" clip-path="url(#p830a18197f)" style="fill: #1f77b4"/>
   </g>
   <g id="patch_86">
    <path d="M 1789358.339533 387.385 
L 1810020.889683 387.385 
L 1810020.889683 387.385 
L 1789358.339533 387.385 
z
" clip-path="url(#p830a18197f)" style="fill: #1f77b4"/>
   </g>
   <g id="patch_87">
    <path d="M 1810020.889683 387.385 
L 1830683.439833 387.385 
L 1830683.439833 387.385 
L 1810020.889683 387.385 
z
" clip-path="url(#p830a18197f)" style="fill: #1f77b4"/>
   </g>
   <g id="patch_88">
    <path d="M 1830683.439833 387.385 
L 1851345.989983 387.385 
L 1851345.989983 387.385 
L 1830683.439833 387.385 
z
" clip-path="url(#p830a18197f)" style="fill: #1f77b4"/>
   </g>
   <g id="patch_89">
    <path d="M 1851345.989983 387.385 
L 1872008.540133 387.385 
L 1872008.540133 387.385 
L 1851345.989983 387.385 
z
" clip-path="url(#p830a18197f)" style="fill: #1f77b4"/>
   </g>
   <g id="patch_90">
    <path d="M 1872008.540133 387.385 
L 1892671.090283 387.385 
L 1892671.090283 387.385 
L 1872008.540133 387.385 
z
" clip-path="url(#p830a18197f)" style="fill: #1f77b4"/>
   </g>
   <g id="patch_91">
    <path d="M 1892671.090283 387.385 
L 1913333.640433 387.385 
L 1913333.640433 387.385 
L 1892671.090283 387.385 
z
" clip-path="url(#p830a18197f)" style="fill: #1f77b4"/>
   </g>
   <g id="patch_92">
    <path d="M 1913333.640433 387.385 
L 1933996.190583 387.385 
L 1933996.190583 387.385 
L 1913333.640433 387.385 
z
" clip-path="url(#p830a18197f)" style="fill: #1f77b4"/>
   </g>
   <g id="patch_93">
    <path d="M 1933996.190583 387.385 
L 1954658.740733 387.385 
L 1954658.740733 387.385 
L 1933996.190583 387.385 
z
" clip-path="url(#p830a18197f)" style="fill: #1f77b4"/>
   </g>
   <g id="patch_94">
    <path d="M 1954658.740733 387.385 
L 1975321.290883 387.385 
L 1975321.290883 387.385 
L 1954658.740733 387.385 
z
" clip-path="url(#p830a18197f)" style="fill: #1f77b4"/>
   </g>
   <g id="patch_95">
    <path d="M 1975321.290883 387.385 
L 1995983.841033 387.385 
L 1995983.841033 387.385 
L 1975321.290883 387.385 
z
" clip-path="url(#p830a18197f)" style="fill: #1f77b4"/>
   </g>
   <g id="patch_96">
    <path d="M 1995983.841033 387.385 
L 2016646.391183 387.385 
L 2016646.391183 387.385 
L 1995983.841033 387.385 
z
" clip-path="url(#p830a18197f)" style="fill: #1f77b4"/>
   </g>
   <g id="patch_97">
    <path d="M 2016646.391183 387.385 
L 2037308.941333 387.385 
L 2037308.941333 387.385 
L 2016646.391183 387.385 
z
" clip-path="url(#p830a18197f)" style="fill: #1f77b4"/>
   </g>
   <g id="patch_98">
    <path d="M 2037308.941333 387.385 
L 2057971.491483 387.385 
L 2057971.491483 387.385 
L 2037308.941333 387.385 
z
" clip-path="url(#p830a18197f)" style="fill: #1f77b4"/>
   </g>
   <g id="patch_99">
    <path d="M 2057971.491483 387.385 
L 2078634.041633 387.385 
L 2078634.041633 387.385 
L 2057971.491483 387.385 
z
" clip-path="url(#p830a18197f)" style="fill: #1f77b4"/>
   </g>
   <g id="patch_100">
    <path d="M 2078634.041633 387.385 
L 2099296.591783 387.385 
L 2099296.591783 387.385 
L 2078634.041633 387.385 
z
" clip-path="url(#p830a18197f)" style="fill: #1f77b4"/>
   </g>
   <g id="patch_101">
    <path d="M 2099296.591783 387.385 
L 2119959.141933 387.385 
L 2119959.141933 387.385 
L 2099296.591783 387.385 
z
" clip-path="url(#p830a18197f)" style="fill: #1f77b4"/>
   </g>
   <g id="patch_102">
    <path d="M 2119959.141933 387.385 
L 2140621.692083 387.385 
L 2140621.692083 272.710397 
L 2119959.141933 272.710397 
z
" clip-path="url(#p830a18197f)" style="fill: #1f77b4"/>
   </g>
   <g id="patch_103">
    <path d="M 55.247708 387.385 
L 89.203125 387.385 
L 89.203125 387.385 
L 55.247708 387.385 
z
" clip-path="url(#p830a18197f)" style="fill: #1f77b4"/>
   </g>
   <g id="patch_104">
    <path d="M 123.158542 387.385 
L 157.113958 387.385 
L 157.113958 158.035794 
L 123.158542 158.035794 
z
" clip-path="url(#p830a18197f)" style="fill: #1f77b4"/>
   </g>
   <g id="patch_105">
    <path d="M 191.069375 387.385 
L 225.024792 387.385 
L 225.024792 272.710397 
L 191.069375 272.710397 
z
" clip-path="url(#p830a18197f)" style="fill: #1f77b4"/>
   </g>
   <g id="patch_106">
    <path d="M 258.980208 387.385 
L 292.935625 387.385 
L 292.935625 387.385 
L 258.980208 387.385 
z
" clip-path="url(#p830a18197f)" style="fill: #1f77b4"/>
   </g>
   <g id="patch_107">
    <path d="M 326.891042 387.385 
L 360.846458 387.385 
L 360.846458 387.385 
L 326.891042 387.385 
z
" clip-path="url(#p830a18197f)" style="fill: #1f77b4"/>
   </g>
   <g id="patch_108">
    <path d="M 394.801875 387.385 
L 428.757292 387.385 
L 428.757292 272.710397 
L 394.801875 272.710397 
z
" clip-path="url(#p830a18197f)" style="fill: #1f77b4"/>
   </g>
   <g id="patch_109">
    <path d="M 462.712708 387.385 
L 496.668125 387.385 
L 496.668125 272.710397 
L 462.712708 272.710397 
z
" clip-path="url(#p830a18197f)" style="fill: #1f77b4"/>
   </g>
   <g id="patch_110">
    <path d="M 530.623542 387.385 
L 564.578958 387.385 
L 564.578958 387.385 
L 530.623542 387.385 
z
" clip-path="url(#p830a18197f)" style="fill: #1f77b4"/>
   </g>
   <g id="patch_111">
    <path d="M 598.534375 387.385 
L 632.489792 387.385 
L 632.489792 272.710397 
L 598.534375 272.710397 
z
" clip-path="url(#p830a18197f)" style="fill: #1f77b4"/>
   </g>
   <g id="patch_112">
    <path d="M 666.445208 387.385 
L 700.400625 387.385 
L 700.400625 43.36119 
L 666.445208 43.36119 
z
" clip-path="url(#p830a18197f)" style="fill: #1f77b4"/>
   </g>
   <g id="patch_113">
    <path d="M 734.356042 387.385 
L 768.311458 387.385 
L 768.311458 158.035794 
L 734.356042 158.035794 
z
" clip-path="url(#p830a18197f)" style="fill: #1f77b4"/>
   </g>
   <g id="patch_114">
    <path d="M 802.266875 387.385 
L 836.222292 387.385 
L 836.222292 387.385 
L 802.266875 387.385 
z
" clip-path="url(#p830a18197f)" style="fill: #1f77b4"/>
   </g>
   <g id="matplotlib.axis_1">
    <g id="xtick_1">
     <g id="line2d_1">
      <defs>
       <path id="m6d0a99bfed" d="M 0 0 
L 0 3.5 
" style="stroke: #000000; stroke-width: 0.8"/>
      </defs>
      <g>
       <use xlink:href="#m6d0a99bfed" x="72.225417" y="387.385" style="stroke: #000000; stroke-width: 0.8"/>
      </g>
     </g>
     <g id="text_1">
      <!-- 1 -->
      <g transform="translate(74.984792 400.7475) rotate(-90) scale(0.1 -0.1)">
       <defs>
        <path id="DejaVuSans-31" d="M 794 531 
L 1825 531 
L 1825 4091 
L 703 3866 
L 703 4441 
L 1819 4666 
L 2450 4666 
L 2450 531 
L 3481 531 
L 3481 0 
L 794 0 
L 794 531 
z
" transform="scale(0.015625)"/>
       </defs>
       <use xlink:href="#DejaVuSans-31"/>
      </g>
     </g>
    </g>
    <g id="xtick_2">
     <g id="line2d_2">
      <g>
       <use xlink:href="#m6d0a99bfed" x="140.13625" y="387.385" style="stroke: #000000; stroke-width: 0.8"/>
      </g>
     </g>
     <g id="text_2">
      <!-- 2 -->
      <g transform="translate(142.895625 400.7475) rotate(-90) scale(0.1 -0.1)">
       <defs>
        <path id="DejaVuSans-32" d="M 1228 531 
L 3431 531 
L 3431 0 
L 469 0 
L 469 531 
Q 828 903 1448 1529 
Q 2069 2156 2228 2338 
Q 2531 2678 2651 2914 
Q 2772 3150 2772 3378 
Q 2772 3750 2511 3984 
Q 2250 4219 1831 4219 
Q 1534 4219 1204 4116 
Q 875 4013 500 3803 
L 500 4441 
Q 881 4594 1212 4672 
Q 1544 4750 1819 4750 
Q 2544 4750 2975 4387 
Q 3406 4025 3406 3419 
Q 3406 3131 3298 2873 
Q 3191 2616 2906 2266 
Q 2828 2175 2409 1742 
Q 1991 1309 1228 531 
z
" transform="scale(0.015625)"/>
       </defs>
       <use xlink:href="#DejaVuSans-32"/>
      </g>
     </g>
    </g>
    <g id="xtick_3">
     <g id="line2d_3">
      <g>
       <use xlink:href="#m6d0a99bfed" x="208.047083" y="387.385" style="stroke: #000000; stroke-width: 0.8"/>
      </g>
     </g>
     <g id="text_3">
      <!-- 3 -->
      <g transform="translate(210.806458 400.7475) rotate(-90) scale(0.1 -0.1)">
       <defs>
        <path id="DejaVuSans-33" d="M 2597 2516 
Q 3050 2419 3304 2112 
Q 3559 1806 3559 1356 
Q 3559 666 3084 287 
Q 2609 -91 1734 -91 
Q 1441 -91 1130 -33 
Q 819 25 488 141 
L 488 750 
Q 750 597 1062 519 
Q 1375 441 1716 441 
Q 2309 441 2620 675 
Q 2931 909 2931 1356 
Q 2931 1769 2642 2001 
Q 2353 2234 1838 2234 
L 1294 2234 
L 1294 2753 
L 1863 2753 
Q 2328 2753 2575 2939 
Q 2822 3125 2822 3475 
Q 2822 3834 2567 4026 
Q 2313 4219 1838 4219 
Q 1578 4219 1281 4162 
Q 984 4106 628 3988 
L 628 4550 
Q 988 4650 1302 4700 
Q 1616 4750 1894 4750 
Q 2613 4750 3031 4423 
Q 3450 4097 3450 3541 
Q 3450 3153 3228 2886 
Q 3006 2619 2597 2516 
z
" transform="scale(0.015625)"/>
       </defs>
       <use xlink:href="#DejaVuSans-33"/>
      </g>
     </g>
    </g>
    <g id="xtick_4">
     <g id="line2d_4">
      <g>
       <use xlink:href="#m6d0a99bfed" x="275.957917" y="387.385" style="stroke: #000000; stroke-width: 0.8"/>
      </g>
     </g>
     <g id="text_4">
      <!-- 4 -->
      <g transform="translate(278.717292 400.7475) rotate(-90) scale(0.1 -0.1)">
       <defs>
        <path id="DejaVuSans-34" d="M 2419 4116 
L 825 1625 
L 2419 1625 
L 2419 4116 
z
M 2253 4666 
L 3047 4666 
L 3047 1625 
L 3713 1625 
L 3713 1100 
L 3047 1100 
L 3047 0 
L 2419 0 
L 2419 1100 
L 313 1100 
L 313 1709 
L 2253 4666 
z
" transform="scale(0.015625)"/>
       </defs>
       <use xlink:href="#DejaVuSans-34"/>
      </g>
     </g>
    </g>
    <g id="xtick_5">
     <g id="line2d_5">
      <g>
       <use xlink:href="#m6d0a99bfed" x="343.86875" y="387.385" style="stroke: #000000; stroke-width: 0.8"/>
      </g>
     </g>
     <g id="text_5">
      <!-- 5 -->
      <g transform="translate(346.628125 400.7475) rotate(-90) scale(0.1 -0.1)">
       <defs>
        <path id="DejaVuSans-35" d="M 691 4666 
L 3169 4666 
L 3169 4134 
L 1269 4134 
L 1269 2991 
Q 1406 3038 1543 3061 
Q 1681 3084 1819 3084 
Q 2600 3084 3056 2656 
Q 3513 2228 3513 1497 
Q 3513 744 3044 326 
Q 2575 -91 1722 -91 
Q 1428 -91 1123 -41 
Q 819 9 494 109 
L 494 744 
Q 775 591 1075 516 
Q 1375 441 1709 441 
Q 2250 441 2565 725 
Q 2881 1009 2881 1497 
Q 2881 1984 2565 2268 
Q 2250 2553 1709 2553 
Q 1456 2553 1204 2497 
Q 953 2441 691 2322 
L 691 4666 
z
" transform="scale(0.015625)"/>
       </defs>
       <use xlink:href="#DejaVuSans-35"/>
      </g>
     </g>
    </g>
    <g id="xtick_6">
     <g id="line2d_6">
      <g>
       <use xlink:href="#m6d0a99bfed" x="411.779583" y="387.385" style="stroke: #000000; stroke-width: 0.8"/>
      </g>
     </g>
     <g id="text_6">
      <!-- 6 -->
      <g transform="translate(414.538958 400.7475) rotate(-90) scale(0.1 -0.1)">
       <defs>
        <path id="DejaVuSans-36" d="M 2113 2584 
Q 1688 2584 1439 2293 
Q 1191 2003 1191 1497 
Q 1191 994 1439 701 
Q 1688 409 2113 409 
Q 2538 409 2786 701 
Q 3034 994 3034 1497 
Q 3034 2003 2786 2293 
Q 2538 2584 2113 2584 
z
M 3366 4563 
L 3366 3988 
Q 3128 4100 2886 4159 
Q 2644 4219 2406 4219 
Q 1781 4219 1451 3797 
Q 1122 3375 1075 2522 
Q 1259 2794 1537 2939 
Q 1816 3084 2150 3084 
Q 2853 3084 3261 2657 
Q 3669 2231 3669 1497 
Q 3669 778 3244 343 
Q 2819 -91 2113 -91 
Q 1303 -91 875 529 
Q 447 1150 447 2328 
Q 447 3434 972 4092 
Q 1497 4750 2381 4750 
Q 2619 4750 2861 4703 
Q 3103 4656 3366 4563 
z
" transform="scale(0.015625)"/>
       </defs>
       <use xlink:href="#DejaVuSans-36"/>
      </g>
     </g>
    </g>
    <g id="xtick_7">
     <g id="line2d_7">
      <g>
       <use xlink:href="#m6d0a99bfed" x="479.690417" y="387.385" style="stroke: #000000; stroke-width: 0.8"/>
      </g>
     </g>
     <g id="text_7">
      <!-- 7 -->
      <g transform="translate(482.449792 400.7475) rotate(-90) scale(0.1 -0.1)">
       <defs>
        <path id="DejaVuSans-37" d="M 525 4666 
L 3525 4666 
L 3525 4397 
L 1831 0 
L 1172 0 
L 2766 4134 
L 525 4134 
L 525 4666 
z
" transform="scale(0.015625)"/>
       </defs>
       <use xlink:href="#DejaVuSans-37"/>
      </g>
     </g>
    </g>
    <g id="xtick_8">
     <g id="line2d_8">
      <g>
       <use xlink:href="#m6d0a99bfed" x="547.60125" y="387.385" style="stroke: #000000; stroke-width: 0.8"/>
      </g>
     </g>
     <g id="text_8">
      <!-- 8 -->
      <g transform="translate(550.360625 400.7475) rotate(-90) scale(0.1 -0.1)">
       <defs>
        <path id="DejaVuSans-38" d="M 2034 2216 
Q 1584 2216 1326 1975 
Q 1069 1734 1069 1313 
Q 1069 891 1326 650 
Q 1584 409 2034 409 
Q 2484 409 2743 651 
Q 3003 894 3003 1313 
Q 3003 1734 2745 1975 
Q 2488 2216 2034 2216 
z
M 1403 2484 
Q 997 2584 770 2862 
Q 544 3141 544 3541 
Q 544 4100 942 4425 
Q 1341 4750 2034 4750 
Q 2731 4750 3128 4425 
Q 3525 4100 3525 3541 
Q 3525 3141 3298 2862 
Q 3072 2584 2669 2484 
Q 3125 2378 3379 2068 
Q 3634 1759 3634 1313 
Q 3634 634 3220 271 
Q 2806 -91 2034 -91 
Q 1263 -91 848 271 
Q 434 634 434 1313 
Q 434 1759 690 2068 
Q 947 2378 1403 2484 
z
M 1172 3481 
Q 1172 3119 1398 2916 
Q 1625 2713 2034 2713 
Q 2441 2713 2670 2916 
Q 2900 3119 2900 3481 
Q 2900 3844 2670 4047 
Q 2441 4250 2034 4250 
Q 1625 4250 1398 4047 
Q 1172 3844 1172 3481 
z
" transform="scale(0.015625)"/>
       </defs>
       <use xlink:href="#DejaVuSans-38"/>
      </g>
     </g>
    </g>
    <g id="xtick_9">
     <g id="line2d_9">
      <g>
       <use xlink:href="#m6d0a99bfed" x="615.512083" y="387.385" style="stroke: #000000; stroke-width: 0.8"/>
      </g>
     </g>
     <g id="text_9">
      <!-- 9 -->
      <g transform="translate(618.271458 400.7475) rotate(-90) scale(0.1 -0.1)">
       <defs>
        <path id="DejaVuSans-39" d="M 703 97 
L 703 672 
Q 941 559 1184 500 
Q 1428 441 1663 441 
Q 2288 441 2617 861 
Q 2947 1281 2994 2138 
Q 2813 1869 2534 1725 
Q 2256 1581 1919 1581 
Q 1219 1581 811 2004 
Q 403 2428 403 3163 
Q 403 3881 828 4315 
Q 1253 4750 1959 4750 
Q 2769 4750 3195 4129 
Q 3622 3509 3622 2328 
Q 3622 1225 3098 567 
Q 2575 -91 1691 -91 
Q 1453 -91 1209 -44 
Q 966 3 703 97 
z
M 1959 2075 
Q 2384 2075 2632 2365 
Q 2881 2656 2881 3163 
Q 2881 3666 2632 3958 
Q 2384 4250 1959 4250 
Q 1534 4250 1286 3958 
Q 1038 3666 1038 3163 
Q 1038 2656 1286 2365 
Q 1534 2075 1959 2075 
z
" transform="scale(0.015625)"/>
       </defs>
       <use xlink:href="#DejaVuSans-39"/>
      </g>
     </g>
    </g>
    <g id="xtick_10">
     <g id="line2d_10">
      <g>
       <use xlink:href="#m6d0a99bfed" x="683.422917" y="387.385" style="stroke: #000000; stroke-width: 0.8"/>
      </g>
     </g>
     <g id="text_10">
      <!-- 10 -->
      <g transform="translate(686.182292 407.11) rotate(-90) scale(0.1 -0.1)">
       <defs>
        <path id="DejaVuSans-30" d="M 2034 4250 
Q 1547 4250 1301 3770 
Q 1056 3291 1056 2328 
Q 1056 1369 1301 889 
Q 1547 409 2034 409 
Q 2525 409 2770 889 
Q 3016 1369 3016 2328 
Q 3016 3291 2770 3770 
Q 2525 4250 2034 4250 
z
M 2034 4750 
Q 2819 4750 3233 4129 
Q 3647 3509 3647 2328 
Q 3647 1150 3233 529 
Q 2819 -91 2034 -91 
Q 1250 -91 836 529 
Q 422 1150 422 2328 
Q 422 3509 836 4129 
Q 1250 4750 2034 4750 
z
" transform="scale(0.015625)"/>
       </defs>
       <use xlink:href="#DejaVuSans-31"/>
       <use xlink:href="#DejaVuSans-30" x="63.623047"/>
      </g>
     </g>
    </g>
    <g id="xtick_11">
     <g id="line2d_11">
      <g>
       <use xlink:href="#m6d0a99bfed" x="751.33375" y="387.385" style="stroke: #000000; stroke-width: 0.8"/>
      </g>
     </g>
     <g id="text_11">
      <!-- 11 -->
      <g transform="translate(754.093125 407.11) rotate(-90) scale(0.1 -0.1)">
       <use xlink:href="#DejaVuSans-31"/>
       <use xlink:href="#DejaVuSans-31" x="63.623047"/>
      </g>
     </g>
    </g>
    <g id="xtick_12">
     <g id="line2d_12">
      <g>
       <use xlink:href="#m6d0a99bfed" x="819.244583" y="387.385" style="stroke: #000000; stroke-width: 0.8"/>
      </g>
     </g>
     <g id="text_12">
      <!-- 12 -->
      <g transform="translate(822.003958 407.11) rotate(-90) scale(0.1 -0.1)">
       <use xlink:href="#DejaVuSans-31"/>
       <use xlink:href="#DejaVuSans-32" x="63.623047"/>
      </g>
     </g>
    </g>
    <g id="text_13">
     <!-- Month -->
     <g transform="translate(430.063906 418.708438) scale(0.1 -0.1)">
      <defs>
       <path id="DejaVuSans-4d" d="M 628 4666 
L 1569 4666 
L 2759 1491 
L 3956 4666 
L 4897 4666 
L 4897 0 
L 4281 0 
L 4281 4097 
L 3078 897 
L 2444 897 
L 1241 4097 
L 1241 0 
L 628 0 
L 628 4666 
z
" transform="scale(0.015625)"/>
       <path id="DejaVuSans-6f" d="M 1959 3097 
Q 1497 3097 1228 2736 
Q 959 2375 959 1747 
Q 959 1119 1226 758 
Q 1494 397 1959 397 
Q 2419 397 2687 759 
Q 2956 1122 2956 1747 
Q 2956 2369 2687 2733 
Q 2419 3097 1959 3097 
z
M 1959 3584 
Q 2709 3584 3137 3096 
Q 3566 2609 3566 1747 
Q 3566 888 3137 398 
Q 2709 -91 1959 -91 
Q 1206 -91 779 398 
Q 353 888 353 1747 
Q 353 2609 779 3096 
Q 1206 3584 1959 3584 
z
" transform="scale(0.015625)"/>
       <path id="DejaVuSans-6e" d="M 3513 2113 
L 3513 0 
L 2938 0 
L 2938 2094 
Q 2938 2591 2744 2837 
Q 2550 3084 2163 3084 
Q 1697 3084 1428 2787 
Q 1159 2491 1159 1978 
L 1159 0 
L 581 0 
L 581 3500 
L 1159 3500 
L 1159 2956 
Q 1366 3272 1645 3428 
Q 1925 3584 2291 3584 
Q 2894 3584 3203 3211 
Q 3513 2838 3513 2113 
z
" transform="scale(0.015625)"/>
       <path id="DejaVuSans-74" d="M 1172 4494 
L 1172 3500 
L 2356 3500 
L 2356 3053 
L 1172 3053 
L 1172 1153 
Q 1172 725 1289 603 
Q 1406 481 1766 481 
L 2356 481 
L 2356 0 
L 1766 0 
Q 1100 0 847 248 
Q 594 497 594 1153 
L 594 3053 
L 172 3053 
L 172 3500 
L 594 3500 
L 594 4494 
L 1172 4494 
z
" transform="scale(0.015625)"/>
       <path id="DejaVuSans-68" d="M 3513 2113 
L 3513 0 
L 2938 0 
L 2938 2094 
Q 2938 2591 2744 2837 
Q 2550 3084 2163 3084 
Q 1697 3084 1428 2787 
Q 1159 2491 1159 1978 
L 1159 0 
L 581 0 
L 581 4863 
L 1159 4863 
L 1159 2956 
Q 1366 3272 1645 3428 
Q 1925 3584 2291 3584 
Q 2894 3584 3203 3211 
Q 3513 2838 3513 2113 
z
" transform="scale(0.015625)"/>
      </defs>
      <use xlink:href="#DejaVuSans-4d"/>
      <use xlink:href="#DejaVuSans-6f" x="86.279297"/>
      <use xlink:href="#DejaVuSans-6e" x="147.460938"/>
      <use xlink:href="#DejaVuSans-74" x="210.839844"/>
      <use xlink:href="#DejaVuSans-68" x="250.048828"/>
     </g>
    </g>
   </g>
   <g id="matplotlib.axis_2">
    <g id="ytick_1">
     <g id="line2d_13">
      <defs>
       <path id="m5ba4026c9f" d="M 0 0 
L -3.5 0 
" style="stroke: #000000; stroke-width: 0.8"/>
      </defs>
      <g>
       <use xlink:href="#m5ba4026c9f" x="38.27" y="387.385" style="stroke: #000000; stroke-width: 0.8"/>
      </g>
     </g>
     <g id="text_14">
      <!-- 0 -->
      <g transform="translate(24.9075 391.184219) scale(0.1 -0.1)">
       <use xlink:href="#DejaVuSans-30"/>
      </g>
     </g>
    </g>
    <g id="ytick_2">
     <g id="line2d_14">
      <g>
       <use xlink:href="#m5ba4026c9f" x="38.27" y="272.710397" style="stroke: #000000; stroke-width: 0.8"/>
      </g>
     </g>
     <g id="text_15">
      <!-- 1 -->
      <g transform="translate(24.9075 276.509616) scale(0.1 -0.1)">
       <use xlink:href="#DejaVuSans-31"/>
      </g>
     </g>
    </g>
    <g id="ytick_3">
     <g id="line2d_15">
      <g>
       <use xlink:href="#m5ba4026c9f" x="38.27" y="158.035794" style="stroke: #000000; stroke-width: 0.8"/>
      </g>
     </g>
     <g id="text_16">
      <!-- 2 -->
      <g transform="translate(24.9075 161.835012) scale(0.1 -0.1)">
       <use xlink:href="#DejaVuSans-32"/>
      </g>
     </g>
    </g>
    <g id="ytick_4">
     <g id="line2d_16">
      <g>
       <use xlink:href="#m5ba4026c9f" x="38.27" y="43.36119" style="stroke: #000000; stroke-width: 0.8"/>
      </g>
     </g>
     <g id="text_17">
      <!-- 3 -->
      <g transform="translate(24.9075 47.160409) scale(0.1 -0.1)">
       <use xlink:href="#DejaVuSans-33"/>
      </g>
     </g>
    </g>
    <g id="text_18">
     <!-- # of posts -->
     <g transform="translate(18.827813 232.363125) rotate(-90) scale(0.1 -0.1)">
      <defs>
       <path id="DejaVuSans-23" d="M 3272 2816 
L 2363 2816 
L 2100 1772 
L 3016 1772 
L 3272 2816 
z
M 2803 4594 
L 2478 3297 
L 3391 3297 
L 3719 4594 
L 4219 4594 
L 3897 3297 
L 4872 3297 
L 4872 2816 
L 3775 2816 
L 3519 1772 
L 4513 1772 
L 4513 1294 
L 3397 1294 
L 3072 0 
L 2572 0 
L 2894 1294 
L 1978 1294 
L 1656 0 
L 1153 0 
L 1478 1294 
L 494 1294 
L 494 1772 
L 1594 1772 
L 1856 2816 
L 850 2816 
L 850 3297 
L 1978 3297 
L 2297 4594 
L 2803 4594 
z
" transform="scale(0.015625)"/>
       <path id="DejaVuSans-20" transform="scale(0.015625)"/>
       <path id="DejaVuSans-66" d="M 2375 4863 
L 2375 4384 
L 1825 4384 
Q 1516 4384 1395 4259 
Q 1275 4134 1275 3809 
L 1275 3500 
L 2222 3500 
L 2222 3053 
L 1275 3053 
L 1275 0 
L 697 0 
L 697 3053 
L 147 3053 
L 147 3500 
L 697 3500 
L 697 3744 
Q 697 4328 969 4595 
Q 1241 4863 1831 4863 
L 2375 4863 
z
" transform="scale(0.015625)"/>
       <path id="DejaVuSans-70" d="M 1159 525 
L 1159 -1331 
L 581 -1331 
L 581 3500 
L 1159 3500 
L 1159 2969 
Q 1341 3281 1617 3432 
Q 1894 3584 2278 3584 
Q 2916 3584 3314 3078 
Q 3713 2572 3713 1747 
Q 3713 922 3314 415 
Q 2916 -91 2278 -91 
Q 1894 -91 1617 61 
Q 1341 213 1159 525 
z
M 3116 1747 
Q 3116 2381 2855 2742 
Q 2594 3103 2138 3103 
Q 1681 3103 1420 2742 
Q 1159 2381 1159 1747 
Q 1159 1113 1420 752 
Q 1681 391 2138 391 
Q 2594 391 2855 752 
Q 3116 1113 3116 1747 
z
" transform="scale(0.015625)"/>
       <path id="DejaVuSans-73" d="M 2834 3397 
L 2834 2853 
Q 2591 2978 2328 3040 
Q 2066 3103 1784 3103 
Q 1356 3103 1142 2972 
Q 928 2841 928 2578 
Q 928 2378 1081 2264 
Q 1234 2150 1697 2047 
L 1894 2003 
Q 2506 1872 2764 1633 
Q 3022 1394 3022 966 
Q 3022 478 2636 193 
Q 2250 -91 1575 -91 
Q 1294 -91 989 -36 
Q 684 19 347 128 
L 347 722 
Q 666 556 975 473 
Q 1284 391 1588 391 
Q 1994 391 2212 530 
Q 2431 669 2431 922 
Q 2431 1156 2273 1281 
Q 2116 1406 1581 1522 
L 1381 1569 
Q 847 1681 609 1914 
Q 372 2147 372 2553 
Q 372 3047 722 3315 
Q 1072 3584 1716 3584 
Q 2034 3584 2315 3537 
Q 2597 3491 2834 3397 
z
" transform="scale(0.015625)"/>
      </defs>
      <use xlink:href="#DejaVuSans-23"/>
      <use xlink:href="#DejaVuSans-20" x="83.789062"/>
      <use xlink:href="#DejaVuSans-6f" x="115.576172"/>
      <use xlink:href="#DejaVuSans-66" x="176.757812"/>
      <use xlink:href="#DejaVuSans-20" x="211.962891"/>
      <use xlink:href="#DejaVuSans-70" x="243.75"/>
      <use xlink:href="#DejaVuSans-6f" x="307.226562"/>
      <use xlink:href="#DejaVuSans-73" x="368.408203"/>
      <use xlink:href="#DejaVuSans-74" x="420.507812"/>
      <use xlink:href="#DejaVuSans-73" x="459.716797"/>
     </g>
    </g>
   </g>
   <g id="patch_115">
    <path d="M 38.27 387.385 
L 38.27 26.16 
" style="fill: none; stroke: #000000; stroke-width: 0.8; stroke-linejoin: miter; stroke-linecap: square"/>
   </g>
   <g id="patch_116">
    <path d="M 853.2 387.385 
L 853.2 26.16 
" style="fill: none; stroke: #000000; stroke-width: 0.8; stroke-linejoin: miter; stroke-linecap: square"/>
   </g>
   <g id="patch_117">
    <path d="M 38.27 387.385 
L 853.2 387.385 
" style="fill: none; stroke: #000000; stroke-width: 0.8; stroke-linejoin: miter; stroke-linecap: square"/>
   </g>
   <g id="patch_118">
    <path d="M 38.27 26.16 
L 853.2 26.16 
" style="fill: none; stroke: #000000; stroke-width: 0.8; stroke-linejoin: miter; stroke-linecap: square"/>
   </g>
   <g id="text_19">
    <!-- Post per month in 2025 -->
    <g transform="translate(375.378438 20.16) scale(0.12 -0.12)">
     <defs>
      <path id="DejaVuSans-50" d="M 1259 4147 
L 1259 2394 
L 2053 2394 
Q 2494 2394 2734 2622 
Q 2975 2850 2975 3272 
Q 2975 3691 2734 3919 
Q 2494 4147 2053 4147 
L 1259 4147 
z
M 628 4666 
L 2053 4666 
Q 2838 4666 3239 4311 
Q 3641 3956 3641 3272 
Q 3641 2581 3239 2228 
Q 2838 1875 2053 1875 
L 1259 1875 
L 1259 0 
L 628 0 
L 628 4666 
z
" transform="scale(0.015625)"/>
      <path id="DejaVuSans-65" d="M 3597 1894 
L 3597 1613 
L 953 1613 
Q 991 1019 1311 708 
Q 1631 397 2203 397 
Q 2534 397 2845 478 
Q 3156 559 3463 722 
L 3463 178 
Q 3153 47 2828 -22 
Q 2503 -91 2169 -91 
Q 1331 -91 842 396 
Q 353 884 353 1716 
Q 353 2575 817 3079 
Q 1281 3584 2069 3584 
Q 2775 3584 3186 3129 
Q 3597 2675 3597 1894 
z
M 3022 2063 
Q 3016 2534 2758 2815 
Q 2500 3097 2075 3097 
Q 1594 3097 1305 2825 
Q 1016 2553 972 2059 
L 3022 2063 
z
" transform="scale(0.015625)"/>
      <path id="DejaVuSans-72" d="M 2631 2963 
Q 2534 3019 2420 3045 
Q 2306 3072 2169 3072 
Q 1681 3072 1420 2755 
Q 1159 2438 1159 1844 
L 1159 0 
L 581 0 
L 581 3500 
L 1159 3500 
L 1159 2956 
Q 1341 3275 1631 3429 
Q 1922 3584 2338 3584 
Q 2397 3584 2469 3576 
Q 2541 3569 2628 3553 
L 2631 2963 
z
" transform="scale(0.015625)"/>
      <path id="DejaVuSans-6d" d="M 3328 2828 
Q 3544 3216 3844 3400 
Q 4144 3584 4550 3584 
Q 5097 3584 5394 3201 
Q 5691 2819 5691 2113 
L 5691 0 
L 5113 0 
L 5113 2094 
Q 5113 2597 4934 2840 
Q 4756 3084 4391 3084 
Q 3944 3084 3684 2787 
Q 3425 2491 3425 1978 
L 3425 0 
L 2847 0 
L 2847 2094 
Q 2847 2600 2669 2842 
Q 2491 3084 2119 3084 
Q 1678 3084 1418 2786 
Q 1159 2488 1159 1978 
L 1159 0 
L 581 0 
L 581 3500 
L 1159 3500 
L 1159 2956 
Q 1356 3278 1631 3431 
Q 1906 3584 2284 3584 
Q 2666 3584 2933 3390 
Q 3200 3197 3328 2828 
z
" transform="scale(0.015625)"/>
      <path id="DejaVuSans-69" d="M 603 3500 
L 1178 3500 
L 1178 0 
L 603 0 
L 603 3500 
z
M 603 4863 
L 1178 4863 
L 1178 4134 
L 603 4134 
L 603 4863 
z
" transform="scale(0.015625)"/>
     </defs>
     <use xlink:href="#DejaVuSans-50"/>
     <use xlink:href="#DejaVuSans-6f" x="56.677734"/>
     <use xlink:href="#DejaVuSans-73" x="117.859375"/>
     <use xlink:href="#DejaVuSans-74" x="169.958984"/>
     <use xlink:href="#DejaVuSans-20" x="209.167969"/>
     <use xlink:href="#DejaVuSans-70" x="240.955078"/>
     <use xlink:href="#DejaVuSans-65" x="304.431641"/>
     <use xlink:href="#DejaVuSans-72" x="365.955078"/>
     <use xlink:href="#DejaVuSans-20" x="407.068359"/>
     <use xlink:href="#DejaVuSans-6d" x="438.855469"/>
     <use xlink:href="#DejaVuSans-6f" x="536.267578"/>
     <use xlink:href="#DejaVuSans-6e" x="597.449219"/>
     <use xlink:href="#DejaVuSans-74" x="660.828125"/>
     <use xlink:href="#DejaVuSans-68" x="700.037109"/>
     <use xlink:href="#DejaVuSans-20" x="763.416016"/>
     <use xlink:href="#DejaVuSans-69" x="795.203125"/>
     <use xlink:href="#DejaVuSans-6e" x="822.986328"/>
     <use xlink:href="#DejaVuSans-20" x="886.365234"/>
     <use xlink:href="#DejaVuSans-32" x="918.152344"/>
     <use xlink:href="#DejaVuSans-30" x="981.775391"/>
     <use xlink:href="#DejaVuSans-32" x="1045.398438"/>
     <use xlink:href="#DejaVuSans-35" x="1109.021484"/>
    </g>
   </g>
  </g>
 </g>
 <defs>
  <clipPath id="p830a18197f">
   <rect x="38.27" y="26.16" width="814.93" height="361.225"/>
  </clipPath>
 </defs>
</svg>
